<?xml version="1.0"?>
<svg xmlns="http://www.w3.org/2000/svg" xmlns:xlink="http://www.w3.org/1999/xlink" version="1.1" id="Capa_1" x="0px" y="0px" viewBox="0 0 512 512" style="enable-background:new 0 0 512 512;" xml:space="preserve" wtx-context="C4B196AC-ECA7-408D-8181-8EDD890327E9" width="512px" height="512px"><g><g>
	<g>
		<path d="M366.699,42.786H72.757c-17.529,0-31.79,14.261-31.79,31.79v27.397l-30.405,21.687C3.91,128.405-0.038,136.115,0,144.286    c0.038,8.167,4.056,15.837,10.744,20.514l30.222,21.161v90.267c0,17.535,14.261,31.8,31.79,31.8h40.747v129.395    c0,17.53,14.262,31.791,31.791,31.791h221.704c4.143,0,7.5-3.358,7.5-7.5c0-4.142-3.357-7.501-7.5-7.501H145.295    c-9.259,0-16.791-7.532-16.791-16.791v-201.66c0-9.259,7.532-16.791,16.791-16.791h42.369c4.143,0,7.5-3.358,7.5-7.5    s-3.357-7.5-7.5-7.5h-42.369c-17.529,0-31.791,14.261-31.791,31.791v57.265H72.757c-9.258,0-16.79-7.536-16.79-16.8v-94.171    c0-2.447-1.193-4.74-3.198-6.144l-33.424-23.402c-2.745-1.92-4.328-4.943-4.344-8.294c-0.016-3.355,1.541-6.396,4.271-8.344    l33.55-23.93c1.973-1.408,3.145-3.682,3.145-6.106v-31.26c0-9.258,7.532-16.79,16.79-16.79h293.942c9.264,0,16.8,7.532,16.8,16.79    v38.42c0,4.142,3.357,7.5,7.5,7.5c4.143,0,7.5-3.358,7.5-7.5v-38.42C398.499,57.047,384.233,42.786,366.699,42.786z" data-original="#000000" class="active-path" data-old_color="#000000" fill="#FFFFFF"/>
	</g>
</g><g>
	<g>
		<path d="M501.44,284.853l-30.405-21.689v-27.402c0-17.53-14.262-31.791-31.791-31.791H398.5v-58.305c0-4.142-3.357-7.5-7.5-7.5    c-4.143,0-7.5,3.358-7.5,7.5v58.305H219.999c-4.143,0-7.5,3.358-7.5,7.5c0,4.142,3.357,7.5,7.5,7.5h219.245    c9.259,0,16.791,7.532,16.791,16.791v31.265c0,2.424,1.171,4.698,3.145,6.106l33.55,23.932c2.729,1.947,4.286,4.986,4.271,8.339    c-0.016,3.353-1.599,6.378-4.346,8.301l-33.422,23.399c-2.004,1.404-3.198,3.697-3.198,6.144v94.174    c0,9.259-7.532,16.791-16.791,16.791H399.48c-4.143,0-7.5,3.358-7.5,7.5c0,4.142,3.357,7.5,7.5,7.5h39.763    c17.529,0,31.791-14.261,31.791-31.791v-90.27l30.224-21.159c6.689-4.684,10.705-12.356,10.741-20.523    C512.035,297.304,508.088,289.597,501.44,284.853z" data-original="#000000" class="active-path" data-old_color="#000000" fill="#FFFFFF"/>
	</g>
</g><g>
	<g>
		<path d="M97.773,86.587c-4.143,0-7.5,3.358-7.5,7.5v11.76c0,4.142,3.357,7.5,7.5,7.5c4.143,0,7.5-3.358,7.5-7.5v-11.76    C105.273,89.945,101.916,86.587,97.773,86.587z" data-original="#000000" class="active-path" data-old_color="#000000" fill="#FFFFFF"/>
	</g>
</g><g>
	<g>
		<path d="M120.861,86.587c-4.143,0-7.5,3.358-7.5,7.5v11.76c0,4.142,3.357,7.5,7.5,7.5c4.143,0,7.5-3.358,7.5-7.5v-11.76    C128.361,89.945,125.004,86.587,120.861,86.587z" data-original="#000000" class="active-path" data-old_color="#000000" fill="#FFFFFF"/>
	</g>
</g><g>
	<g>
		<path d="M350.736,142.491H218.202c-4.143,0-7.5,3.358-7.5,7.5s3.357,7.5,7.5,7.5h132.533c4.143,0,7.5-3.358,7.5-7.5    S354.878,142.491,350.736,142.491z" data-original="#000000" class="active-path" data-old_color="#000000" fill="#FFFFFF"/>
	</g>
</g><g>
	<g>
		<path d="M350.736,167.903H168.532c-4.143,0-7.5,3.358-7.5,7.5s3.357,7.5,7.5,7.5h182.204c4.143,0,7.5-3.358,7.5-7.5    S354.878,167.903,350.736,167.903z" data-original="#000000" class="active-path" data-old_color="#000000" fill="#FFFFFF"/>
	</g>
</g><g>
	<g>
		<path d="M417.569,245.418c-4.143,0-7.5,3.358-7.5,7.5v11.76c0,4.142,3.357,7.5,7.5,7.5c4.143,0,7.5-3.358,7.5-7.5v-11.76    C425.069,248.776,421.712,245.418,417.569,245.418z" data-original="#000000" class="active-path" data-old_color="#000000" fill="#FFFFFF"/>
	</g>
</g><g>
	<g>
		<path d="M394.48,245.418c-4.143,0-7.5,3.358-7.5,7.5v11.76c0,4.142,3.357,7.5,7.5,7.5c4.143,0,7.5-3.358,7.5-7.5v-11.76    C401.98,248.776,398.623,245.418,394.48,245.418z" data-original="#000000" class="active-path" data-old_color="#000000" fill="#FFFFFF"/>
	</g>
</g><g>
	<g>
		<path d="M297.139,301.321H164.606c-4.143,0-7.5,3.358-7.5,7.5s3.357,7.5,7.5,7.5h132.533c4.143,0,7.5-3.358,7.5-7.5    S301.282,301.321,297.139,301.321z" data-original="#000000" class="active-path" data-old_color="#000000" fill="#FFFFFF"/>
	</g>
</g><g>
	<g>
		<path d="M297.139,379.086H164.606c-4.143,0-7.5,3.358-7.5,7.5s3.357,7.5,7.5,7.5h132.533c4.143,0,7.5-3.358,7.5-7.5    S301.282,379.086,297.139,379.086z" data-original="#000000" class="active-path" data-old_color="#000000" fill="#FFFFFF"/>
	</g>
</g><g>
	<g>
		<path d="M297.139,408.566H164.606c-4.143,0-7.5,3.358-7.5,7.5s3.357,7.5,7.5,7.5h132.533c4.143,0,7.5-3.358,7.5-7.5    S301.282,408.566,297.139,408.566z" data-original="#000000" class="active-path" data-old_color="#000000" fill="#FFFFFF"/>
	</g>
</g><g>
	<g>
		<path d="M346.81,326.733H164.606c-4.143,0-7.5,3.358-7.5,7.5s3.357,7.5,7.5,7.5H346.81c4.142,0,7.5-3.358,7.5-7.5    S350.953,326.733,346.81,326.733z" data-original="#000000" class="active-path" data-old_color="#000000" fill="#FFFFFF"/>
	</g>
</g></g> </svg>
