<?xml version="1.0"?>
<svg xmlns="http://www.w3.org/2000/svg" xmlns:xlink="http://www.w3.org/1999/xlink" version="1.1" id="Capa_1" x="0px" y="0px" viewBox="0 0 216 216" style="enable-background:new 0 0 216 216;" xml:space="preserve" wtx-context="8DFAC6B3-A4C2-46A8-AB5E-4F8B698A4595" width="512px" height="512px"><g><path d="M108,0C48.353,0,0,48.353,0,108s48.353,108,108,108s108-48.353,108-108S167.647,0,108,0z M179.237,121.063  c-1.419-1.622-3.498-2.651-5.822-2.651c-4.275,0-7.74,3.466-7.74,7.74s3.466,7.74,7.74,7.74c1.655,0,3.184-0.523,4.442-1.407  l-1.809,14.973l-20.748-2.075l-7.98,23.461l-23.142-7.182l3.511-12.768l-20.907-4.628l3.099-13.846  c3.414,2.673,7.71,4.271,12.383,4.271c11.106,0,20.109-9.003,20.109-20.109c0-11.106-9.003-20.109-20.109-20.109  c-11.106,0-20.109,9.003-20.109,20.109c0,4.656,1.587,8.94,4.244,12.349L88.67,152.884l-9.495-5.427l-9.414,26.97l-22.977-7.187  l6.553-20.757l-22.005-5.604l26.214-99.306l23.541,5.993l-9.321,36.564L52.999,133h13.406l2.394-8h8.618h8.618l2.394,8h13.406  L83.067,84h-5.65h-4.693l6.765-19.741l23.618,7.231l-9.422,28.887l28.237-41.974l3.807,2.713l2.187-9.257l23.845,5.267  l-10.73,50.523l6.637-23.473V133h12V84h-10.886l8.594-28.04l23.62,7.55l-3.83,11.81l7.501,0.798L179.237,121.063z M113.007,114.582  c0-5.112,4.145-9.257,9.257-9.257s9.257,4.144,9.257,9.257s-4.144,9.257-9.257,9.257S113.007,119.694,113.007,114.582z M72.485,116  l5.148-17.177L82.78,116H72.485z" data-original="#000000" class="active-path" data-old_color="#000000" fill="#FFFFFF"/></g> </svg>
